<?xml version="1.0" standalone="no"?>
<!DOCTYPE svg PUBLIC "-//W3C//DTD SVG 20010904//EN"
 "http://www.w3.org/TR/2001/REC-SVG-20010904/DTD/svg10.dtd">
<svg version="1.0" xmlns="http://www.w3.org/2000/svg"
 width="260.000000pt" height="260.000000pt" viewBox="0 0 260.000000 260.000000"
 preserveAspectRatio="xMidYMid meet">
<metadata>
Created by potrace 1.11, written by Peter Selinger 2001-2013
</metadata>
<g transform="translate(0.000000,260.000000) scale(0.100000,-0.100000)"
fill="#000000" stroke="none">
<path d="M1155 2529 c-38 -10 -78 -21 -89 -24 -10 -2 -24 -9 -32 -16 -8 -6
-14 -8 -14 -5 0 7 -12 0 -65 -34 -16 -11 -38 -23 -47 -26 -10 -4 -18 -10 -18
-15 0 -5 -6 -9 -14 -9 -8 0 -24 -12 -35 -26 -12 -15 -21 -24 -21 -20 0 8 -89
-91 -118 -131 -13 -18 -21 -33 -18 -33 3 0 -6 -16 -19 -36 -14 -20 -30 -54
-37 -75 -6 -22 -14 -39 -18 -39 -9 0 -8 4 -10 -197 -1 -95 -5 -173 -10 -173
-5 0 -4 -15 1 -32 5 -18 9 -60 9 -93 0 -55 21 -215 36 -275 3 -14 9 -43 14
-65 4 -22 18 -83 30 -135 12 -52 22 -101 22 -107 1 -7 5 -13 10 -13 5 0 7 -4
4 -9 -4 -5 -3 -11 2 -13 4 -1 31 -46 61 -98 30 -52 67 -116 83 -142 l30 -47
-26 -125 c-14 -69 -36 -149 -47 -178 -12 -29 -24 -69 -26 -90 -4 -31 0 -41 27
-67 18 -17 36 -28 41 -25 5 3 9 1 9 -4 0 -13 81 -47 155 -66 126 -31 301 -47
370 -33 17 4 57 9 90 12 57 6 78 9 135 21 50 10 148 63 174 94 32 39 34 80 5
152 -11 29 -22 60 -24 68 -2 8 -12 51 -23 95 -23 88 -33 163 -23 167 8 4 58
89 61 103 1 6 7 17 14 25 22 25 86 146 97 182 15 49 15 49 53 228 19 91 40
208 46 260 11 100 19 490 9 490 -3 0 -6 21 -8 46 -2 52 -22 107 -63 177 -15
26 -28 52 -28 57 0 5 -8 14 -17 19 -10 6 -15 11 -11 11 3 0 -24 28 -60 63 -37
34 -69 64 -72 67 -6 7 -102 64 -110 66 -3 0 -34 14 -70 31 -134 63 -286 78
-415 42z"/>
</g>
</svg>
